<?xml version="1.0" encoding="UTF-8" standalone="no"?><!DOCTYPE svg PUBLIC "-//W3C//DTD SVG 1.1//EN" "http://www.w3.org/Graphics/SVG/1.1/DTD/svg11.dtd"><svg width="100%" height="100%" viewBox="0 0 48 53" version="1.1" xmlns="http://www.w3.org/2000/svg" xmlns:xlink="http://www.w3.org/1999/xlink" xml:space="preserve" xmlns:serif="http://www.serif.com/" style="fill-rule:evenodd;clip-rule:evenodd;stroke-linejoin:round;stroke-miterlimit:2;"><rect id="アートボード1" x="0" y="0" width="48" height="53" style="fill:none;"/><path d="M28.836,6.257c-0.328,0.005 -0.316,0.507 -0.087,0.522c-0.02,-0.194 0.07,-0.343 0.087,-0.522m-0.329,1.885c-0.354,0.359 -0.209,0.935 -0.326,1.398c0.443,-0.321 0.382,-0.86 0.326,-1.398m-0.091,1.499c-0.363,-0.072 -0.386,0.502 -0.123,0.926c0.369,-0.305 -0.004,-0.621 0.123,-0.926m-1.473,8.872c0.089,0.225 -0.194,0.288 -0.086,0.522c0.234,-0.046 0.36,-0.487 0.086,-0.522m-0.226,1.65c0.276,-0.186 0.313,-0.841 0.089,-1.01c-0.037,0.286 -0.084,0.569 -0.273,0.79c0.194,-0.022 0.23,0.061 0.184,0.22m-0.009,1.953c-0.192,-0.688 0.331,-1.067 0.075,-1.785c-0.211,0.478 -0.933,1.499 -0.075,1.785m0.561,6.119c0.033,-0.126 0.022,-0.27 -0.082,-0.455c-0.275,0.07 -0.183,0.541 0.082,0.455m-1.278,-0.276c0.097,-0.741 0.128,-1.495 0.161,-2.307c0.135,-0.399 0.398,-1.066 0.124,-1.415c0.252,-0.474 0.294,-1.41 0.278,-1.767c0.034,0.131 -0.173,0.157 -0.304,0.218c-0.259,2.473 -0.701,4.411 -0.824,7.054c0.361,-0.527 0.493,-1.239 0.565,-1.783m-0.567,2.272c-0.274,0.977 -0.334,2.046 -0.317,3.149c0.455,-0.843 0.555,-2.456 0.317,-3.149m-0.369,3.266c0.013,0.266 -0.27,0.765 0.079,0.944c-0.136,-0.319 0.329,-0.739 -0.079,-0.944m-0.056,1.095c-0.114,0.23 -0.097,0.517 -0.071,0.808c0.21,-0.127 0.292,-0.494 0.054,-0.606c0.147,-0.028 0.182,-0.203 0.017,-0.202m-0.122,0.926c0.028,0.175 -0.181,0.248 -0.002,0.489c0.29,0.001 0.223,-0.499 0.002,-0.489m1.517,-0.111c0.217,1.798 -1.029,3.934 -0.28,5.963c0.033,0.084 0.108,0.072 0.151,0.135c1.006,-0.897 0.12,-2.219 0.74,-3.316c-0.212,-2.565 0.307,-5.365 0.119,-7.849c0.094,-0.053 0.246,-0.081 0.221,-0.185c-0.294,-0.201 0.26,-1.001 -0.213,-1.28c-0.229,2.184 -0.301,4.438 -0.738,6.532m-0.694,7.881c-0.045,-0.216 -0.227,-0.123 -0.25,-0.389c-0.271,0.373 -0.431,0.793 -0.477,1.262c0.549,-0.158 0.298,-0.663 0.727,-0.873m-2.782,-3.096c-0.078,-0.22 0.282,-0.25 0.205,-0.471c-0.427,0.019 -0.456,-0.883 -0.957,-0.694c0.207,0.487 0.376,1.065 0.752,1.165m-0.781,1.48c-0.198,-0.35 -0.404,-0.681 -0.704,-0.795c0.248,0.232 0.37,0.756 0.704,0.795m-7.825,-9.201c2.391,3.047 4.616,5.48 7.087,8.321c-0.182,-0.366 -0.526,-0.713 -0.566,-1.434c-0.056,-0.14 -0.252,0.044 -0.319,-0.07c-2.014,-3.028 -4.164,-5.473 -6.566,-8.234c-0.044,-0.112 0.117,-0.135 0.102,-0.235c-1.262,-0.584 -1.697,-2.404 -3.036,-2.996c0.883,1.301 2.19,2.786 3.298,4.648m3.246,8.472c0.072,0.156 0.302,-0.051 0.353,0.153c-0.384,0.142 0.137,0.241 0.116,0.539c0.971,0.823 1.574,2.495 2.562,3.281c0.054,0.507 0.624,1.109 1.021,1.352c-0.902,-1.812 -1.801,-2.769 -2.742,-4.477c-1.47,-2.668 -3.943,-4.421 -5.141,-6.846c-0.33,-0.045 -0.532,-0.383 -0.806,-0.56c1.51,2.49 3.129,4.215 4.637,6.558m-5.791,-8.248c-0.185,-0.217 -0.267,-0.674 -0.553,-0.659c0.121,0.365 0.27,0.665 0.553,0.659m-0.586,-0.744l-0.2,-0.506c-0.249,0.031 -0.095,0.238 -0.153,0.353c0.184,-0.103 0.19,0.207 0.353,0.153m-0.469,-0.692c0.065,-0.195 -0.2,-0.612 -0.435,-0.609c0.115,0.271 0.249,0.501 0.435,0.609m20.596,1.526c-0.021,-0.102 0.067,-0.08 0.085,-0.034c1.63,-1.553 2.628,-3.381 3.595,-5.222c0.414,-0.194 0.433,-0.558 0.527,-0.89c0.399,-0.362 1.039,-1.101 1.019,-1.866c1.376,-1.223 1.859,-3.244 3.104,-4.736c0.053,-0.582 0.593,-0.955 0.429,-1.632c0.827,-0.411 0.326,-1.398 1.255,-1.764c0.444,-0.096 0.7,0.687 1.078,0.257c-0.092,0.428 -0.558,0.691 -0.277,1.281c-0.608,0.807 -1.095,1.669 -1.174,2.706c-0.637,0.349 -0.997,1.373 -1.324,2.083c0.756,-0.441 0.984,-1.717 1.914,-2.316c0.119,-0.578 0.193,-1.175 0.631,-1.615c0.661,-0.018 1.298,0.017 1.647,0.715c-0.705,2.081 -2.101,3.503 -3.393,5.241c0.078,0.089 0.176,0.132 0.32,0.069c-0.43,0.606 -0.453,1.389 -0.515,2.154c-1.297,1.279 -1.556,3.008 -2.783,4.316c-0.114,0.907 -0.975,1.489 -1.105,2.388c-1.159,1.315 -1.715,2.892 -2.699,4.283c-1.167,2.641 -2.909,5.031 -3.861,7.765c-0.655,0.461 -0.826,1.133 -0.817,1.885c-0.903,0.143 -0.372,1.077 -1.035,1.577c-0.183,1.016 -1.082,1.721 -1.376,2.689c-0.417,-0.005 -0.809,-0.068 -1.213,-0.106c0.047,-0.188 -0.286,-0.535 -0.366,-0.928c1.228,-1.705 2.052,-3.586 3.157,-5.343c-0.273,-0.574 -0.87,0.494 -0.658,0.553c-0.287,0.458 -0.745,0.842 -0.698,1.446c-0.117,0.054 -0.233,0.108 -0.286,0.015c-0.478,1.297 -1.705,2.871 -3.261,1.872c0.163,-0.362 -0.164,-0.659 -0.281,-0.962c-0.039,0.356 -0.105,0.701 -0.055,1.095c-0.374,0.071 -0.382,0.3 -0.727,0.384c-0.214,-0.378 -0.422,-0.72 -0.804,-1.048c0.086,-0.149 0.155,-0.306 0.205,-0.471c-0.222,-0.187 -0.413,-0.446 -0.535,-0.862c-0.117,-0.054 -0.235,-0.104 -0.353,-0.152c-1.284,-1.843 -2.194,-3.468 -3.684,-4.886c0.078,-0.461 -0.191,-0.758 -0.671,-0.711c-0.025,-0.104 0.126,-0.132 0.219,-0.184c-4.406,-6.017 -8.024,-11.743 -12.27,-17.004c1.513,-0.669 2.482,2.22 3.795,2.696c0.061,0.652 0.726,1.057 0.987,1.757c0.232,0.289 0.537,0.055 0.519,0.574c0.043,-1.212 -1.597,-1.757 -1.721,-3.124c-0.763,-0.825 -1.711,-2.06 -2.227,-2.924c-0.673,-0.898 -1.98,-1.638 -2.378,-3.061c0.198,-0.08 0.306,0.047 0.54,-0.115c0.462,0.511 0.912,0.905 1.223,1.371c0.509,0.064 0.99,0.188 1.328,0.645c0.491,-0.217 0.797,-0.009 1.179,0.022l0.167,0.423c1.429,1.004 2.657,2.468 4.145,3.337c3.061,3.13 6.533,6.48 9.726,9.816c0.251,-0.101 0.201,-0.333 0.407,-0.453c-0.021,-1.384 -0.184,-2.83 0.506,-3.906c-0.123,-1.739 0.141,-3.248 0.527,-4.597c-0.06,-0.13 -0.087,-0.337 -0.218,-0.304c0.649,-2.406 0.555,-4.935 1.264,-7.423c-0.249,-1.437 0.428,-2.472 0.102,-3.942c0.713,-1.438 0.045,-3.477 0.562,-5c-0.154,-1.279 -0.394,-2.595 -0.084,-3.674c0.294,-0.033 0.582,-0.051 0.809,0.072c0.532,-0.353 0.48,-1.329 0.277,-1.768c0.326,-0.445 0.712,-1.146 0.429,-1.632c0.656,-0.671 0.032,-1.897 0.753,-2.54c-0.295,-0.163 0.061,-0.492 0.104,-0.724c0.447,-0.224 0.809,-0.251 1.113,-0.147c0.284,0.42 0.394,0.771 0.146,1.113c0.334,0.143 0.645,0.341 0.975,0.493c0.205,1.347 -0.655,2.233 -0.437,3.586c0.311,-0.05 0.451,-0.05 0.859,-0.046c-0.08,0.663 0.083,1.433 -0.295,1.97c0.454,1.408 0.296,2.551 -0.034,3.621c0.221,0.221 0.129,0.275 0.233,0.591c-0.531,2.459 0.454,5.429 -0.525,7.813c0.412,0.55 -0.078,1.045 0.398,1.502c-0.19,0.034 -0.202,0.146 -0.305,0.217c0.407,1.016 -0.307,1.546 0.022,2.528c-0.214,0.069 -0.208,0.235 -0.355,0.335c0.594,0.868 0.052,2.256 -0.015,3.42c-0.014,0.239 0.174,0.479 0.182,0.708c0.008,0.243 -0.202,0.609 -0.207,0.96c-0.004,0.323 0.166,0.649 0.131,0.826c-0.011,0.055 -0.218,0.117 -0.219,0.184c-0.005,0.168 0.189,0.34 0.199,0.506c0.03,0.466 -0.201,0.945 -0.209,1.448c-0.028,1.709 0.198,3.372 0.129,5.02c0.514,-0.359 0.556,-0.923 0.815,-1.394c0.815,-0.589 1.396,-1.856 1.916,-2.804c-0.074,0.011 -0.117,-0.052 -0.202,-0.018" style="fill:#2a1410;"/></svg>